<?xml version="1.0" encoding="utf-8"?>
<!-- Generator: Adobe Illustrator 15.0.2, SVG Export Plug-In . SVG Version: 6.00 Build 0)  -->
<!DOCTYPE svg PUBLIC "-//W3C//DTD SVG 1.1//EN" "http://www.w3.org/Graphics/SVG/1.1/DTD/svg11.dtd">
<svg version="1.1" id="Layer_1" xmlns="http://www.w3.org/2000/svg" xmlns:xlink="http://www.w3.org/1999/xlink" x="0px" y="0px"
	 width="360px" height="360px" viewBox="0 0 360 360" enable-background="new 0 0 360 360" xml:space="preserve">
<g>
	<path fill="#212929" d="M216.701,201.39h-5.068v-1.69h5.068c9.752,0,16.052-7.626,16.052-19.43c0-10.113-6.901-17.74-16.052-17.74
		h-0.844v-0.845c0-6.942-3.773-14.361-14.361-14.361h-2.188l-0.241-0.435c-4.537-8.191-13.104-13.082-22.914-13.082
		c-14.441,0-26.189,11.749-26.189,26.189v0.844h-0.845c-10.712,0-19.429,8.717-19.429,19.43c0,10.714,8.717,19.43,19.429,19.43v1.69
		c-11.645,0-21.119-9.474-21.119-21.12c0-11.366,9.025-20.664,20.286-21.103c0.441-14.99,12.771-27.05,27.867-27.05
		c10.259,0,19.248,5.043,24.147,13.517h1.196c9.472,0,15.688,5.946,16.035,15.225c9.698,0.444,16.91,8.64,16.91,19.411
		C234.441,193.1,227.479,201.39,216.701,201.39"/>
	<path fill="#ED3293" d="M176.561,212.56c-0.778,0-1.409,0.631-1.409,1.408v11.263c0,0.777,0.631,1.408,1.409,1.408H189.7
		c0.778,0,1.409-0.631,1.409-1.408v-11.263c0-0.777-0.631-1.408-1.409-1.408H176.561z M189.7,227.577h-13.139
		c-1.297,0-2.349-1.053-2.349-2.347v-11.263c0-1.294,1.052-2.348,2.349-2.348H189.7c1.295,0,2.347,1.054,2.347,2.348v11.263
		C192.047,226.524,190.995,227.577,189.7,227.577"/>
	<path fill="#ED3293" d="M190.17,212.09h-0.938v-3.755c0-2.847-2.316-5.162-5.164-5.162h-1.877c-2.845,0-5.163,2.315-5.163,5.162
		v3.755h-0.939v-3.755c0-3.363,2.739-6.101,6.102-6.101h1.877c3.363,0,6.102,2.737,6.102,6.101V212.09z"/>
	<path fill="#212929" d="M184.068,217.722c0,0.519-0.42,0.939-0.938,0.939c-0.517,0-0.938-0.421-0.938-0.939
		s0.422-0.938,0.938-0.938C183.648,216.784,184.068,217.203,184.068,217.722"/>
	<path fill="#212929" d="M183.13,217.206c-0.286,0-0.517,0.23-0.517,0.516s0.23,0.517,0.517,0.517s0.517-0.231,0.517-0.517
		S183.416,217.206,183.13,217.206 M183.13,219.083c-0.751,0-1.36-0.611-1.36-1.361s0.609-1.361,1.36-1.361
		c0.75,0,1.36,0.611,1.36,1.361S183.88,219.083,183.13,219.083"/>
	<path fill="#ED3293" d="M183.13,217.253c-0.259,0-0.467,0.21-0.467,0.469s0.208,0.471,0.467,0.471s0.47-0.212,0.47-0.471
		S183.389,217.253,183.13,217.253 M183.13,219.13c-0.774,0-1.407-0.632-1.407-1.408c0-0.775,0.633-1.408,1.407-1.408
		c0.776,0,1.409,0.633,1.409,1.408C184.539,218.498,183.906,219.13,183.13,219.13"/>
</g>
<rect x="182.663" y="217.801" fill="#ED3293" width="0.935" height="4.693"/>
<g>
	<path fill="#ED3293" d="M176.561,212.982c-0.544,0-0.986,0.441-0.986,0.984v11.265c0,0.543,0.442,0.985,0.986,0.985H189.7
		c0.544,0,0.985-0.442,0.985-0.985v-11.265c0-0.543-0.441-0.984-0.985-0.984H176.561z M189.7,227.061h-13.139
		c-1.009,0-1.831-0.82-1.831-1.829v-11.265c0-1.009,0.822-1.83,1.831-1.83H189.7c1.01,0,1.831,0.821,1.831,1.83v11.265
		C191.531,226.24,190.71,227.061,189.7,227.061 M176.561,212.043c-1.062,0-1.927,0.863-1.927,1.924v11.265
		c0,1.061,0.865,1.924,1.927,1.924H189.7c1.062,0,1.924-0.863,1.924-1.924v-11.265c0-1.061-0.862-1.924-1.924-1.924H176.561z
		 M189.7,228h-13.139c-1.528,0-2.772-1.242-2.772-2.769v-11.265c0-1.525,1.244-2.769,2.772-2.769H189.7
		c1.526,0,2.769,1.243,2.769,2.769v11.265C192.469,226.758,191.227,228,189.7,228"/>
	<path fill="#ED3293" d="M189.654,211.668h0.094v-3.332c0-3.131-2.549-5.68-5.68-5.68h-1.877c-3.132,0-5.68,2.549-5.68,5.68v3.332
		h0.094v-3.332c0-3.08,2.507-5.585,5.585-5.585h1.877c3.08,0,5.586,2.505,5.586,5.585V211.668z M190.593,212.513h-1.782v-4.177
		c0-2.614-2.127-4.74-4.742-4.74h-1.877c-2.614,0-4.741,2.126-4.741,4.74v4.177h-1.784v-4.177c0-3.598,2.927-6.524,6.524-6.524
		h1.877c3.598,0,6.524,2.927,6.524,6.524V212.513z"/>
	<path fill="#ED3293" d="M183.13,218.614c-0.489,0-0.89-0.401-0.89-0.893s0.4-0.892,0.89-0.892c0.492,0,0.892,0.4,0.892,0.892
		S183.622,218.614,183.13,218.614 M183.13,216.736c-0.543,0-0.985,0.441-0.985,0.985s0.442,0.985,0.985,0.985
		c0.544,0,0.987-0.441,0.987-0.985S183.674,216.736,183.13,216.736 M183.13,219.552c-1.01,0-1.83-0.82-1.83-1.83
		s0.82-1.83,1.83-1.83c1.011,0,1.832,0.82,1.832,1.83S184.141,219.552,183.13,219.552"/>
</g>
<path fill="#ED3293" d="M183.085,222.071h0.091v-3.849h-0.091V222.071z M184.021,222.916h-1.78v-5.538h1.78V222.916z"/>
<g>
	<path fill="#010101" d="M190.739,175.904c-4.315,7.096-17.732,8.298-21.528,0.049c-0.855-1.858-3.743-0.522-2.885,1.339
		c4.762,10.353,21.43,9.631,27.023,0.428C194.407,175.979,191.807,174.148,190.739,175.904 M158.778,164.406
		c2.643,5.021,9.575,4.688,12.543,0.154c1.117-1.71-1.488-3.534-2.612-1.815c-1.576,2.406-5.493,3.273-7.045,0.322
		C160.713,161.265,157.822,162.593,158.778,164.406 M193.737,164.968c-0.676-1.932-3.558-0.578-2.886,1.339
		c1.932,5.511,8.998,5.48,12.449,1.572c1.352-1.529-1.268-3.335-2.61-1.812C198.648,168.375,194.786,167.961,193.737,164.968"/>
	<path fill="none" stroke="#FFFFFF" stroke-width="0.873" stroke-miterlimit="10" d="M190.739,175.904
		c-4.315,7.096-17.732,8.298-21.528,0.049c-0.855-1.858-3.743-0.522-2.885,1.339c4.762,10.353,21.43,9.631,27.023,0.428
		C194.407,175.979,191.807,174.148,190.739,175.904z M158.778,164.406c2.643,5.021,9.575,4.688,12.543,0.154
		c1.117-1.71-1.488-3.534-2.612-1.815c-1.576,2.406-5.493,3.273-7.045,0.322C160.713,161.265,157.822,162.593,158.778,164.406z
		 M193.737,164.968c-0.676-1.932-3.558-0.578-2.886,1.339c1.932,5.511,8.998,5.48,12.449,1.572c1.352-1.529-1.268-3.335-2.61-1.812
		C198.648,168.375,194.786,167.961,193.737,164.968z"/>
</g>
<polygon fill="#212929" points="224.43,218.285 201.621,218.285 201.621,200.545 203.311,200.545 203.311,216.595 224.43,216.595 
	"/>
<polyline fill="none" stroke="#212929" stroke-width="1.455" points="198.398,203.314 202.494,199.583 206.59,203.314 "/>
<polyline fill="none" stroke="#212929" stroke-width="1.455" points="221.463,213.461 225.193,217.557 221.463,221.649 "/>
<polygon fill="#212929" points="139.888,218.285 162.697,218.285 162.697,200.545 161.008,200.545 161.008,216.595 139.888,216.595 
	"/>
<polyline fill="none" stroke="#212929" stroke-width="1.455" points="165.92,203.314 161.824,199.583 157.729,203.314 "/>
<polyline fill="none" stroke="#212929" stroke-width="1.455" points="142.855,213.461 139.125,217.557 142.855,221.649 "/>
</svg>
