<?xml version="1.0" encoding="utf-8"?>
<!-- Generator: Adobe Illustrator 15.0.2, SVG Export Plug-In . SVG Version: 6.00 Build 0)  -->
<!DOCTYPE svg PUBLIC "-//W3C//DTD SVG 1.1//EN" "http://www.w3.org/Graphics/SVG/1.1/DTD/svg11.dtd">
<svg version="1.1" id="Layer_1" xmlns="http://www.w3.org/2000/svg" xmlns:xlink="http://www.w3.org/1999/xlink" x="0px" y="0px"
	 width="360px" height="360px" viewBox="0 0 360 360" enable-background="new 0 0 360 360" xml:space="preserve">
<g>
	<path fill="#251F21" d="M135.632,135.887c-2.219,0-4.023,1.805-4.023,4.023v64.366c0,2.218,1.804,4.022,4.023,4.022h90.113
		c2.219,0,4.022-1.805,4.022-4.022V139.91c0-2.219-1.804-4.023-4.022-4.023H135.632z M225.745,209.908h-90.113
		c-3.105,0-5.632-2.527-5.632-5.632V139.91c0-3.105,2.527-5.632,5.632-5.632h90.113c3.104,0,5.632,2.526,5.632,5.632v64.366
		C231.377,207.381,228.85,209.908,225.745,209.908"/>
</g>
<rect x="184.357" y="216.345" transform="matrix(0.2874 0.9578 -0.9578 0.2874 345.3517 -29.8807)" fill="#251F21" width="16.8" height="1.609"/>
<rect x="167.816" y="208.749" transform="matrix(0.9578 0.2873 -0.2873 0.9578 69.4938 -39.2887)" fill="#251F21" width="1.608" height="16.801"/>
<rect x="159.769" y="224.391" fill="#251F21" width="41.838" height="1.609"/>
<rect x="179.079" y="201.863" fill="#251F21" width="3.219" height="1.608"/>
<g>
	<path fill="#251F21" d="M138.045,195.426h85.287v-53.102h-85.287V195.426z M224.136,197.035h-86.894
		c-0.445,0-0.805-0.36-0.805-0.805v-54.712c0-0.443,0.36-0.805,0.805-0.805h86.894c0.444,0,0.805,0.361,0.805,0.805v54.712
		C224.94,196.675,224.58,197.035,224.136,197.035"/>
</g>
<rect x="156.551" y="163.243" fill="#ED3293" width="3.218" height="1.608"/>
<rect x="191.952" y="163.243" fill="#ED3293" width="6.437" height="1.608"/>
<rect x="198.389" y="166.461" fill="#ED3293" width="6.438" height="1.609"/>
<rect x="201.607" y="169.679" fill="#ED3293" width="3.219" height="1.609"/>
<rect x="198.389" y="172.898" fill="#ED3293" width="3.219" height="1.608"/>
<rect x="198.389" y="176.116" fill="#ED3293" width="6.438" height="1.608"/>
<rect x="204.825" y="172.898" fill="#ED3293" width="6.437" height="1.608"/>
<rect x="191.952" y="169.679" fill="#ED3293" width="3.219" height="1.609"/>
<rect x="188.734" y="166.461" fill="#ED3293" width="6.437" height="1.609"/>
<rect x="185.516" y="172.898" fill="#ED3293" width="3.219" height="1.608"/>
<rect x="182.298" y="169.679" fill="#ED3293" width="3.218" height="1.609"/>
<rect x="185.516" y="176.116" fill="#ED3293" width="6.437" height="1.608"/>
<rect x="185.516" y="179.334" fill="#ED3293" width="3.219" height="1.609"/>
<rect x="191.952" y="179.334" fill="#ED3293" width="3.219" height="1.609"/>
<rect x="191.952" y="182.553" fill="#ED3293" width="3.219" height="1.609"/>
<rect x="188.734" y="185.771" fill="#ED3293" width="3.218" height="1.608"/>
<rect x="201.607" y="182.553" fill="#ED3293" width="3.219" height="1.609"/>
<rect x="211.264" y="182.553" fill="#ED3293" width="3.217" height="1.609"/>
<rect x="198.389" y="185.771" fill="#ED3293" width="3.219" height="1.608"/>
<rect x="204.825" y="185.771" fill="#ED3293" width="6.437" height="1.608"/>
<rect x="179.079" y="185.771" fill="#ED3293" width="6.437" height="1.608"/>
<rect x="175.861" y="182.553" fill="#ED3293" width="3.218" height="1.609"/>
<rect x="166.206" y="182.553" fill="#ED3293" width="6.437" height="1.609"/>
<rect x="172.643" y="172.898" fill="#ED3293" width="3.218" height="1.608"/>
<rect x="169.424" y="169.679" fill="#ED3293" width="6.437" height="1.609"/>
<rect x="166.206" y="166.461" fill="#ED3293" width="3.218" height="1.609"/>
<rect x="159.769" y="169.679" fill="#ED3293" width="6.437" height="1.609"/>
<rect x="150.114" y="160.025" fill="#ED3293" width="6.437" height="1.608"/>
<rect x="156.551" y="172.898" fill="#ED3293" width="6.437" height="1.608"/>
<rect x="159.77" y="179.334" fill="#ED3293" width="3.218" height="1.609"/>
<rect x="166.206" y="176.116" fill="#ED3293" width="6.437" height="1.608"/>
<rect x="166.206" y="179.334" fill="#ED3293" width="3.218" height="1.609"/>
<rect x="162.987" y="185.771" fill="#ED3293" width="3.219" height="1.608"/>
<rect x="169.425" y="185.771" fill="#ED3293" width="3.218" height="1.608"/>
<rect x="175.861" y="179.334" fill="#ED3293" width="6.437" height="1.609"/>
<rect x="179.079" y="172.898" fill="#ED3293" width="3.219" height="1.608"/>
<rect x="175.861" y="166.461" fill="#ED3293" width="6.437" height="1.609"/>
<rect x="156.551" y="166.461" fill="#ED3293" width="3.218" height="1.609"/>
<rect x="153.332" y="182.553" fill="#ED3293" width="6.437" height="1.609"/>
<rect x="175.861" y="153.588" fill="#ED3293" width="6.437" height="1.609"/>
<rect x="179.079" y="160.025" fill="#ED3293" width="9.655" height="1.608"/>
<rect x="169.424" y="156.806" fill="#ED3293" width="9.655" height="1.609"/>
<rect x="182.298" y="163.243" fill="#ED3293" width="3.218" height="1.608"/>
<rect x="150.114" y="163.243" fill="#ED3293" width="3.219" height="1.608"/>
<rect x="162.988" y="163.243" fill="#ED3293" width="12.873" height="1.608"/>
<rect x="191.953" y="156.806" fill="#ED3293" width="12.873" height="1.609"/>
<rect x="208.044" y="179.334" fill="#ED3293" width="6.437" height="1.609"/>
<rect x="211.264" y="176.116" fill="#ED3293" width="3.217" height="1.608"/>
<rect x="208.044" y="169.679" fill="#ED3293" width="6.437" height="1.609"/>
<rect x="204.825" y="163.243" fill="#ED3293" width="6.437" height="1.608"/>
<rect x="201.607" y="163.243" fill="#ED3293" width="3.219" height="1.608"/>
<rect x="211.264" y="160.025" fill="#ED3293" width="3.217" height="1.608"/>
<rect x="208.044" y="156.806" fill="#ED3293" width="6.437" height="1.609"/>
<rect x="201.607" y="153.588" fill="#ED3293" width="6.437" height="1.609"/>
<rect x="211.264" y="150.37" fill="#ED3293" width="3.217" height="1.608"/>
<rect x="198.389" y="150.37" fill="#ED3293" width="6.438" height="1.608"/>
<rect x="195.171" y="153.588" fill="#ED3293" width="3.218" height="1.609"/>
<rect x="188.734" y="150.37" fill="#ED3293" width="6.437" height="1.608"/>
<rect x="185.516" y="153.588" fill="#ED3293" width="3.219" height="1.609"/>
<rect x="185.516" y="156.806" fill="#ED3293" width="3.219" height="1.609"/>
<rect x="162.987" y="156.806" fill="#ED3293" width="3.219" height="1.609"/>
<rect x="153.332" y="156.806" fill="#ED3293" width="6.437" height="1.609"/>
<rect x="146.896" y="156.806" fill="#ED3293" width="3.218" height="1.609"/>
<rect x="146.896" y="163.243" fill="#ED3293" width="3.218" height="1.608"/>
<rect x="146.896" y="169.679" fill="#ED3293" width="3.218" height="1.609"/>
<rect x="150.114" y="176.116" fill="#ED3293" width="6.437" height="1.608"/>
<rect x="153.333" y="169.679" fill="#ED3293" width="3.218" height="1.609"/>
<rect x="146.896" y="179.334" fill="#ED3293" width="3.218" height="1.609"/>
<rect x="150.114" y="185.771" fill="#ED3293" width="6.437" height="1.608"/>
<rect x="146.896" y="182.553" fill="#ED3293" width="3.218" height="1.609"/>
<rect x="159.769" y="153.588" fill="#ED3293" width="6.437" height="1.609"/>
<rect x="166.206" y="150.37" fill="#ED3293" width="6.437" height="1.608"/>
<rect x="146.896" y="150.37" fill="#ED3293" width="12.873" height="1.608"/>
<rect x="179.079" y="150.37" fill="#ED3293" width="6.437" height="1.608"/>
</svg>
