<?xml version="1.0" encoding="utf-8"?>
<!-- Generator: Adobe Illustrator 15.0.2, SVG Export Plug-In . SVG Version: 6.00 Build 0)  -->
<!DOCTYPE svg PUBLIC "-//W3C//DTD SVG 1.1//EN" "http://www.w3.org/Graphics/SVG/1.1/DTD/svg11.dtd">
<svg version="1.1" id="Layer_1" xmlns="http://www.w3.org/2000/svg" xmlns:xlink="http://www.w3.org/1999/xlink" x="0px" y="0px"
	 width="360px" height="360px" viewBox="0 0 360 360" enable-background="new 0 0 360 360" xml:space="preserve">
<g>
	<defs>
		<rect id="SVGID_1_" x="125" y="131.66" width="111.096" height="96.34"/>
	</defs>
	<clipPath id="SVGID_2_">
		<use xlink:href="#SVGID_1_"  overflow="visible"/>
	</clipPath>
	<path clip-path="url(#SVGID_2_)" fill="#212929" d="M177.076,224.528h-29.51v-1.736h29.51c1.436,0,2.604-1.168,2.604-2.604v-1.736
		h1.736v1.736C181.416,222.581,179.47,224.528,177.076,224.528"/>
</g>
<rect x="133.679" y="219.321" fill="#212929" width="3.472" height="1.735"/>
<g>
	<path fill="#212929" d="M180.547,198.49h-6.944v-1.735h6.944c1.436,0,2.604-1.168,2.604-2.604v-1.736
		c0-1.435-1.168-2.603-2.604-2.603h-15.623c-0.268,0-0.52-0.124-0.685-0.334c-0.164-0.211-0.222-0.486-0.157-0.745l3.446-13.783
		v-5.101c0-0.042-0.044-4.339-2.604-4.339c-4.29,0-4.339,4.162-4.339,4.339c0,0.071-0.009,0.142-0.026,0.211l-1.736,6.943
		c-0.025,0.097-0.064,0.188-0.12,0.271l-10.415,15.623c-0.161,0.241-0.433,0.386-0.722,0.386h-5.208v-1.734h4.743l10.074-15.112
		l1.675-6.698c0.044-2.127,1.351-5.964,6.074-5.964c3.433,0,4.34,3.974,4.34,6.075v5.208c0,0.071-0.009,0.141-0.026,0.21
		l-3.202,12.809h14.511c2.394,0,4.34,1.947,4.34,4.339v1.736C184.888,196.544,182.941,198.49,180.547,198.49"/>
	<path fill="#212929" d="M178.812,215.849h-5.208v-1.735h5.208c1.436,0,2.604-1.168,2.604-2.604v-1.734h1.735v1.734
		C183.151,213.902,181.205,215.849,178.812,215.849"/>
	<path fill="#212929" d="M180.547,207.17h-6.944v-1.736h6.944c1.436,0,2.604-1.168,2.604-2.604v-1.735h1.736v1.735
		C184.888,205.223,182.941,207.17,180.547,207.17"/>
	<path fill="#212929" d="M142.358,228H125v-1.736h16.491v-32.98H125v-1.736h17.359c0.48,0,0.868,0.389,0.868,0.868v34.717
		C143.227,227.611,142.838,228,142.358,228"/>
	<path fill="#212929" d="M181.416,149.019h-1.736v-1.736c0-2.393,1.945-4.339,4.34-4.339h29.509v1.735H184.02
		c-1.436,0-2.604,1.168-2.604,2.604V149.019z"/>
	<path fill="#212929" d="M196.17,203.698c-3.433,0-4.34-3.975-4.34-6.076v-5.207c0-0.071,0.01-0.142,0.025-0.211l3.203-12.808
		h-14.511c-2.393,0-4.339-1.947-4.339-4.341v-1.735c0-2.393,1.946-4.339,4.339-4.339h6.944v1.735h-6.944
		c-1.436,0-2.604,1.168-2.604,2.604v1.735c0,1.437,1.168,2.604,2.604,2.604h15.623c0.268,0,0.521,0.123,0.686,0.334
		s0.222,0.484,0.158,0.745l-3.447,13.783v5.1c0,0.042,0.044,4.34,2.604,4.34c4.291,0,4.34-4.162,4.34-4.34
		c0-0.07,0.008-0.141,0.025-0.21l1.736-6.944c0.025-0.096,0.063-0.188,0.119-0.27l10.416-15.623
		c0.162-0.242,0.433-0.387,0.723-0.387h5.207v1.735h-4.743l-10.074,15.112l-1.675,6.698
		C202.2,199.861,200.893,203.698,196.17,203.698"/>
	<path fill="#212929" d="M179.68,157.698h-1.736v-1.736c0-2.394,1.946-4.339,4.339-4.339h5.207v1.734h-5.207
		c-1.436,0-2.604,1.168-2.604,2.604V157.698z"/>
	<path fill="#212929" d="M177.943,166.377h-1.736v-1.736c0-2.393,1.946-4.34,4.34-4.34h6.943v1.736h-6.943
		c-1.436,0-2.604,1.168-2.604,2.604V166.377z"/>
	<path fill="#212929" d="M236.096,175.924h-17.359c-0.479,0-0.868-0.389-0.868-0.867v-34.718c0-0.479,0.389-0.867,0.868-0.867
		h17.359v1.735h-16.492v32.981h16.492V175.924z"/>
</g>
<rect x="223.943" y="146.415" fill="#212929" width="3.473" height="1.736"/>
<rect x="152.712" y="140.339" transform="matrix(0.7071 0.7071 -0.7071 0.7071 146.3683 -70.9644)" fill="#ED3293" width="12.274" height="1.736"/>
<rect x="169.264" y="131.66" fill="#ED3293" width="1.736" height="10.415"/>
<rect x="149.302" y="151.622" fill="#ED3293" width="10.415" height="1.736"/>
<rect x="204.788" y="214.982" transform="matrix(0.7071 0.7071 -0.7071 0.7071 214.4241 -85.9253)" fill="#ED3293" width="12.274" height="1.735"/>
<rect x="198.773" y="214.981" fill="#ED3293" width="1.736" height="10.415"/>
<rect x="210.057" y="203.698" fill="#ED3293" width="10.416" height="1.735"/>
</svg>
