<?xml version="1.0" encoding="utf-8"?>
<!-- Generator: Adobe Illustrator 15.0.2, SVG Export Plug-In . SVG Version: 6.00 Build 0)  -->
<!DOCTYPE svg PUBLIC "-//W3C//DTD SVG 1.1//EN" "http://www.w3.org/Graphics/SVG/1.1/DTD/svg11.dtd">
<svg version="1.1" id="Layer_1" xmlns="http://www.w3.org/2000/svg" xmlns:xlink="http://www.w3.org/1999/xlink" x="0px" y="0px"
	 width="360px" height="360px" viewBox="0 0 360 360" enable-background="new 0 0 360 360" xml:space="preserve">
<g>
	<defs>
		<rect id="SVGID_1_" x="131" y="124.942" width="98.021" height="110.058"/>
	</defs>
	<clipPath id="SVGID_2_">
		<use xlink:href="#SVGID_1_"  overflow="visible"/>
	</clipPath>
	<g clip-path="url(#SVGID_2_)">
		<defs>
			<path id="SVGID_3_" d="M179.84,163.751"/>
		</defs>
		<clipPath id="SVGID_4_">
			<use xlink:href="#SVGID_3_"  overflow="visible"/>
		</clipPath>
		
			<linearGradient id="SVGID_5_" gradientUnits="userSpaceOnUse" x1="179.8398" y1="163.752" x2="179.8398" y2="163.752" gradientTransform="matrix(0.001 0 0 -0.001 50.0093 -8439.7744)">
			<stop  offset="0" style="stop-color:#303493"/>
			<stop  offset="0.35" style="stop-color:#ED3293"/>
			<stop  offset="1" style="stop-color:#ED3293"/>
		</linearGradient>
		<path clip-path="url(#SVGID_4_)" fill="url(#SVGID_5_)" d="M179.84,163.752L179.84,163.752z"/>
	</g>
</g>
<path fill="none" stroke="#000000" d="M179.839,163.751"/>
<g>
	<defs>
		<rect id="SVGID_6_" x="131" y="124.942" width="98.021" height="110.058"/>
	</defs>
	<clipPath id="SVGID_7_">
		<use xlink:href="#SVGID_6_"  overflow="visible"/>
	</clipPath>
	<path clip-path="url(#SVGID_7_)" d="M229.021,235h-1.72v-17.197c0-9.556-11.004-14.512-21.768-18.1l-10.431-5.206l0.769-1.538
		l10.318,5.159c11.232,3.735,22.831,9.037,22.831,19.685V235z"/>
	<path clip-path="url(#SVGID_7_)" d="M132.719,235H131v-17.197c0-10.647,11.597-15.949,22.943-19.731l10.205-5.112l0.769,1.538
		l-10.318,5.159c-10.877,3.635-21.88,8.591-21.88,18.146V235z"/>
</g>
<rect x="148.196" y="224.682" width="1.72" height="10.318"/>
<rect x="210.104" y="224.682" width="1.721" height="10.318"/>
<rect x="168.833" y="179.971" width="1.719" height="8.599"/>
<rect x="189.468" y="179.971" width="1.72" height="8.599"/>
<g>
	<path d="M180.01,184.271c-12.966,0-17.916-12.812-18.053-21.137l-1.723-1.723v-3.796h1.719v3.083l1.72,1.72v0.356
		c0,7.646,4.435,19.776,16.337,19.776c11.901,0,16.335-12.131,16.335-19.776v-0.356l1.721-1.72v-3.083h1.72v3.796l-1.723,1.723
		C197.926,171.459,192.977,184.271,180.01,184.271"/>
	<path d="M180.01,194.588c4.314,0,7.96,2.902,9.094,6.857l5.372-9.402l-2.748-4.121l-11.379,4.877c-0.219,0.093-0.46,0.093-0.679,0
		l-11.379-4.877l-2.747,4.121l5.372,9.402C172.048,197.49,175.695,194.588,180.01,194.588 M188.608,204.906
		c-0.074,0-0.147-0.009-0.22-0.029c-0.379-0.1-0.641-0.441-0.641-0.831c0-4.267-3.471-7.738-7.738-7.738
		c-4.268,0-7.739,3.472-7.739,7.738c0,0.39-0.262,0.731-0.64,0.831c-0.364,0.1-0.772-0.065-0.967-0.404l-6.879-12.038
		c-0.161-0.282-0.149-0.632,0.032-0.902l3.439-5.159c0.231-0.346,0.674-0.476,1.055-0.314l11.699,5.015l11.699-5.015
		c0.383-0.161,0.825-0.031,1.055,0.314l3.438,5.159c0.181,0.271,0.193,0.62,0.032,0.902l-6.879,12.038
		C189.199,204.746,188.91,204.906,188.608,204.906"/>
	<path d="M175.711,235h-1.72v-24.075c0-0.228,0.091-0.446,0.252-0.607l4.551-4.551l-6.271-6.271l1.216-1.216l6.879,6.879
		c0.336,0.335,0.336,0.88,0,1.216l-4.907,4.907V235z"/>
	<path d="M186.029,235h-1.721v-23.719l-4.906-4.907c-0.336-0.336-0.336-0.881,0-1.216l6.878-6.879l1.215,1.216l-6.271,6.271
		l4.552,4.551c0.16,0.161,0.252,0.38,0.252,0.607V235z"/>
	<path d="M188.608,172.232h-3.438c-2.188,0-4.104-1.173-5.16-2.921c-1.055,1.748-2.973,2.921-5.159,2.921h-3.44v-1.72h3.44
		c2.371,0,4.299-1.928,4.299-4.299h1.72c0,2.371,1.926,4.299,4.299,4.299h3.438V172.232z"/>
	<path d="M180.01,160.194c-11.089,0-19.776-4.909-19.776-11.178h1.719c0,5.127,8.269,9.459,18.057,9.459
		c9.787,0,18.056-4.332,18.056-9.459h1.72C199.786,155.285,191.098,160.194,180.01,160.194"/>
	<path d="M199.684,145.985l-1.516-0.814c0.045-0.081,3.768-7.078,4.798-13.676c-2.185,1.185-5.636,1.186-7.479,1.186
		c-3.711,0-6.002-2.188-7.054-4.601c-1.587,2.476-4.824,4.601-8.422,4.601c-3.599,0-6.835-2.125-8.423-4.601
		c-1.052,2.413-3.343,4.601-7.054,4.601c-1.843,0-5.294,0-7.478-1.186c1.027,6.603,4.752,13.595,4.795,13.676l-1.514,0.814
		c-0.215-0.4-5.261-9.878-5.261-17.604h1.719c0,1.76,2.459,2.58,7.739,2.58c4.151,0,6.018-3.521,6.018-6.019h1.72
		c0,2.377,3.466,6.019,7.739,6.019c4.272,0,7.737-3.642,7.737-6.019h1.721c0,2.498,1.867,6.019,6.018,6.019
		c5.28,0,7.739-0.82,7.739-2.58h1.72C204.945,136.107,199.898,145.585,199.684,145.985"/>
	<path d="M195.442,214.228c0.063,7.498,5.256,10.848,5.903,11.237c0.648-0.39,5.842-3.739,5.905-11.237h-2.059
		c-2.321,0-3.49-1.318-3.847-1.812c-0.355,0.493-1.524,1.812-3.844,1.812H195.442z M201.346,225.761
		c-0.022,0-0.045-0.006-0.064-0.018c-0.062-0.032-6.113-3.429-6.113-11.653c0-0.076,0.061-0.138,0.137-0.138h2.197
		c2.629,0,3.713-1.835,3.725-1.853c0.05-0.085,0.19-0.085,0.238,0c0.012,0.018,1.098,1.853,3.728,1.853h2.196
		c0.076,0,0.136,0.062,0.136,0.138c0,8.225-6.05,11.621-6.113,11.653C201.391,225.755,201.369,225.761,201.346,225.761"/>
	<path fill="#ED3293" d="M195.883,214.657c0.23,6.406,4.352,9.562,5.463,10.298c1.112-0.736,5.233-3.892,5.465-10.298h-1.618
		c-2.007,0-3.224-0.905-3.847-1.568c-0.623,0.663-1.838,1.568-3.844,1.568H195.883z M201.346,226.19h-0.108l-0.161-0.069
		c-0.062-0.032-6.338-3.503-6.338-12.031c0-0.312,0.255-0.567,0.566-0.567h2.197c2.323,0,3.315-1.579,3.357-1.646
		c0.188-0.327,0.781-0.336,0.979,0.01c0.037,0.058,1.029,1.637,3.354,1.637h2.196c0.312,0,0.565,0.255,0.565,0.567
		c0,8.528-6.274,11.999-6.339,12.032l-0.096,0.052L201.346,226.19z"/>
	<path fill="#ED3293" d="M161.953,148.157h36.113v-5.159h-36.113V148.157z M198.926,149.877h-37.833
		c-0.475,0-0.859-0.385-0.859-0.86v-6.879c0-0.474,0.384-0.858,0.859-0.858h37.833c0.477,0,0.86,0.385,0.86,0.858v6.879
		C199.786,149.492,199.402,149.877,198.926,149.877"/>
</g>
</svg>
