<?xml version="1.0" encoding="utf-8"?>
<!-- Generator: Adobe Illustrator 15.0.2, SVG Export Plug-In . SVG Version: 6.00 Build 0)  -->
<!DOCTYPE svg PUBLIC "-//W3C//DTD SVG 1.1//EN" "http://www.w3.org/Graphics/SVG/1.1/DTD/svg11.dtd">
<svg version="1.1" id="Layer_1" xmlns="http://www.w3.org/2000/svg" xmlns:xlink="http://www.w3.org/1999/xlink" x="0px" y="0px"
	 width="360px" height="360px" viewBox="0 0 360 360" enable-background="new 0 0 360 360" xml:space="preserve">
<g>
	<defs>
		<rect id="SVGID_1_" x="158" y="163.074" width="46.254" height="33.926"/>
	</defs>
	<clipPath id="SVGID_2_">
		<use xlink:href="#SVGID_1_"  overflow="visible"/>
	</clipPath>
	<path clip-path="url(#SVGID_2_)" fill="#242B34" d="M202.07,164.917c-0.102,0-0.215,0.022-0.336,0.087l-28.312,14.772
		c-0.334,0.174-0.384,0.483-0.389,0.609c-0.007,0.125,0.014,0.439,0.331,0.645l20.927,13.539c0.199,0.13,0.438,0.154,0.657,0.066
		c0.22-0.084,0.38-0.263,0.44-0.492l7.386-28.311c0.11-0.427-0.164-0.685-0.251-0.753
		C202.463,165.032,202.297,164.917,202.07,164.917 M194.68,196.143c-0.411,0-0.818-0.119-1.178-0.352l-20.928-13.54
		c-0.659-0.428-1.03-1.15-0.994-1.934c0.037-0.783,0.474-1.467,1.169-1.831l28.313-14.771c0.775-0.404,1.682-0.316,2.367,0.227
		c0.684,0.545,0.972,1.411,0.75,2.257l-7.385,28.312c-0.18,0.685-0.66,1.226-1.319,1.481
		C195.215,196.094,194.947,196.143,194.68,196.143"/>
	<path clip-path="url(#SVGID_2_)" fill="#242B34" d="M182.503,197c-0.111,0-0.222-0.025-0.325-0.077
		c-0.247-0.123-0.402-0.374-0.402-0.649v-8.722c0-0.4,0.325-0.726,0.728-0.726c0.401,0,0.727,0.325,0.727,0.726v7.269l4.651-3.489
		c0.32-0.241,0.775-0.175,1.017,0.146c0.241,0.321,0.177,0.776-0.145,1.019l-5.814,4.36C182.811,196.95,182.656,197,182.503,197"/>
	<path clip-path="url(#SVGID_2_)" fill="#242B34" d="M182.701,188.17c-0.174,0-0.348-0.063-0.486-0.188
		c-0.299-0.268-0.321-0.728-0.053-1.025l14.336-15.88c0.269-0.298,0.729-0.318,1.026-0.052c0.298,0.271,0.321,0.729,0.052,1.026
		L183.24,187.93C183.098,188.089,182.899,188.17,182.701,188.17"/>
</g>
<rect x="161.215" y="169.795" transform="matrix(0.7071 0.7071 -0.7071 0.7071 169.6993 -67.3154)" fill="#242B34" width="9.775" height="2.764"/>
<rect x="161.215" y="169.795" transform="matrix(0.7071 0.7071 -0.7071 0.7071 169.6993 -67.3154)" fill="none" stroke="#F7F8F8" stroke-miterlimit="10" width="9.775" height="2.764"/>
<rect x="173.705" y="163.574" fill="#242B34" width="2.765" height="8.294"/>
<g>
	<defs>
		<rect id="SVGID_3_" x="158" y="163.074" width="46.254" height="33.926"/>
	</defs>
	<clipPath id="SVGID_4_">
		<use xlink:href="#SVGID_3_"  overflow="visible"/>
	</clipPath>
	
		<rect x="173.705" y="163.574" clip-path="url(#SVGID_4_)" fill="none" stroke="#F7F8F8" stroke-miterlimit="10" width="2.765" height="8.294"/>
</g>
<rect x="158.5" y="178.779" fill="#242B34" width="8.294" height="2.765"/>
<g>
	<rect x="158.5" y="178.779" fill="none" stroke="#F7F8F8" stroke-miterlimit="10" width="8.294" height="2.765"/>
</g>
</svg>
