<?xml version="1.0" encoding="utf-8"?>
<!-- Generator: Adobe Illustrator 15.0.2, SVG Export Plug-In . SVG Version: 6.00 Build 0)  -->
<!DOCTYPE svg PUBLIC "-//W3C//DTD SVG 1.1//EN" "http://www.w3.org/Graphics/SVG/1.1/DTD/svg11.dtd">
<svg version="1.1" id="Layer_1" xmlns="http://www.w3.org/2000/svg" xmlns:xlink="http://www.w3.org/1999/xlink" x="0px" y="0px"
	 width="360px" height="360px" viewBox="0 0 360 360" enable-background="new 0 0 360 360" xml:space="preserve">
<g>
	<path fill="#242B34" d="M180.812,164.887c-6.28,0-11.389,5.065-11.389,11.293c-0.014,6.967,8.318,16.435,10.872,19.172
		c0.136,0.145,0.318,0.225,0.514,0.225h0.001c0.197,0,0.379-0.08,0.516-0.226c2.551-2.746,10.875-12.245,10.875-19.171
		C192.201,169.952,187.092,164.887,180.812,164.887 M180.81,196.999c-0.586,0-1.153-0.246-1.555-0.677
		c-3.389-3.631-11.268-12.86-11.255-20.144c0-7.011,5.748-12.716,12.813-12.716c7.064,0,12.812,5.705,12.812,12.717
		c0,7.241-7.873,16.496-11.258,20.14c-0.4,0.434-0.969,0.68-1.556,0.68H180.81z"/>
	<path fill="#242B34" d="M180.812,171.388c-2.747,0-4.982,2.235-4.982,4.982c0,2.748,2.235,4.982,4.982,4.982
		c2.746,0,4.982-2.234,4.982-4.982C185.795,173.623,183.559,171.388,180.812,171.388 M180.812,182.776
		c-3.532,0-6.406-2.874-6.406-6.406c0-3.531,2.874-6.406,6.406-6.406c3.533,0,6.406,2.875,6.406,6.406
		C187.219,179.902,184.346,182.776,180.812,182.776"/>
</g>
</svg>
