<?xml version="1.0" encoding="utf-8"?>
<!-- Generator: Adobe Illustrator 15.0.2, SVG Export Plug-In . SVG Version: 6.00 Build 0)  -->
<!DOCTYPE svg PUBLIC "-//W3C//DTD SVG 1.1//EN" "http://www.w3.org/Graphics/SVG/1.1/DTD/svg11.dtd">
<svg version="1.1" id="Layer_1" xmlns="http://www.w3.org/2000/svg" xmlns:xlink="http://www.w3.org/1999/xlink" x="0px" y="0px"
	 width="360px" height="360px" viewBox="0 0 360 360" enable-background="new 0 0 360 360" xml:space="preserve">
<g>
	<defs>
		<rect id="SVGID_1_" x="120" y="167" width="122.143" height="27"/>
	</defs>
	<clipPath id="SVGID_2_">
		<use xlink:href="#SVGID_1_"  overflow="visible"/>
	</clipPath>
	<path clip-path="url(#SVGID_2_)" fill="#4F4F4F" d="M122.7,194h5.4v-13.5h4.008l0.492-5.4h-4.291v-2.158
		c0-1.053,0.701-1.299,1.193-1.299h3.029v-4.626L128.36,167c-4.63,0-5.682,3.45-5.682,5.659v2.44H120v5.4h2.7V194z"/>
	<path clip-path="url(#SVGID_2_)" fill="#4F4F4F" d="M189.807,170.098c-1.069,0.625-2.256,1.08-3.519,1.324
		c-1.009-1.06-2.449-1.722-4.043-1.722c-3.059,0-5.539,2.442-5.539,5.453c0,0.427,0.049,0.842,0.143,1.243
		c-4.605-0.228-8.686-2.398-11.418-5.698c-0.476,0.804-0.751,1.741-0.751,2.742c0,1.891,0.98,3.56,2.465,4.538
		c-0.906-0.029-1.762-0.273-2.509-0.683v0.069c0,2.641,1.909,4.845,4.445,5.347c-0.466,0.124-0.955,0.191-1.461,0.191
		c-0.357,0-0.704-0.034-1.042-0.098c0.707,2.165,2.751,3.743,5.175,3.786c-1.897,1.463-4.284,2.335-6.881,2.335
		c-0.449,0-0.888-0.026-1.322-0.076c2.453,1.547,5.365,2.449,8.493,2.449c10.189,0,15.76-8.308,15.76-15.514
		c0-0.237-0.002-0.473-0.014-0.707c1.081-0.768,2.021-1.727,2.764-2.823c-0.992,0.436-2.061,0.728-3.182,0.858
		C188.516,172.44,189.393,171.372,189.807,170.098"/>
</g>
<rect x="219.502" y="174.548" fill="#4F4F4F" width="5.283" height="15.094"/>
<g>
	<path fill="#4F4F4F" d="M222.144,172.283c1.457,0,2.642-1.183,2.642-2.641c0-1.46-1.185-2.643-2.642-2.643
		c-1.461,0-2.641,1.183-2.641,2.643C219.503,171.101,220.683,172.283,222.144,172.283"/>
	<path fill="#4F4F4F" d="M242.143,181.347c0-4.073-0.877-6.8-5.625-6.8c-2.283,0-3.814,0.849-4.44,2.037h-0.065v-2.037h-4.209
		v15.095h4.399v-7.481c0-1.973,0.373-3.883,2.815-3.883c2.402,0,2.598,2.255,2.598,4.009v7.355h4.527V181.347z"/>
</g>
</svg>
