<?xml version="1.0" encoding="utf-8"?>
<!-- Generator: Adobe Illustrator 15.0.2, SVG Export Plug-In . SVG Version: 6.00 Build 0)  -->
<!DOCTYPE svg PUBLIC "-//W3C//DTD SVG 1.1//EN" "http://www.w3.org/Graphics/SVG/1.1/DTD/svg11.dtd">
<svg version="1.1" id="Layer_1" xmlns="http://www.w3.org/2000/svg" xmlns:xlink="http://www.w3.org/1999/xlink" x="0px" y="0px"
	 width="360px" height="360px" viewBox="0 0 360 360" enable-background="new 0 0 360 360" xml:space="preserve">
<g>
	<path fill="#1F2020" d="M195.434,185.671c-0.204-1.147-0.456-2.317-0.768-3.494c-0.159-0.604-0.78-0.968-1.385-0.807
		c-0.606,0.161-0.968,0.781-0.808,1.386c0.293,1.11,0.53,2.22,0.724,3.313c0.112,0.617,0.7,1.027,1.317,0.919
		C195.132,186.878,195.543,186.289,195.434,185.671 M217.879,197.387C218.826,198.236,218.084,198.564,217.879,197.387
		c-2.824-2.53-6.557-4.072-10.646-4.072c-4.309,0-8.207,1.721-11.076,4.495c0.041-0.825,0.069-1.758,0.069-2.789
		c0-0.524-0.008-1.072-0.022-1.642c-0.018-0.627-0.541-1.121-1.168-1.102c-0.627,0.017-1.119,0.538-1.101,1.166
		c0.017,0.547,0.022,1.074,0.022,1.577c0,1.361-0.049,2.554-0.112,3.521c-2.915-3.194-7.087-5.227-11.757-5.227
		c-4.798,0-9.077,2.144-11.998,5.494c-0.051-0.774-0.097-1.809-0.097-3.056c-0.005-5.113,0.784-13.607,5.024-20.786
		c0.318-0.54,0.138-1.236-0.402-1.553c-0.54-0.318-1.236-0.138-1.553,0.401c-4.558,7.755-5.332,16.604-5.338,21.938
		c0,0.829,0.02,1.561,0.048,2.203c-2.879-2.857-6.826-4.642-11.206-4.642c-4.243,0-8.095,1.661-10.951,4.363
		c-0.205,1.228-0.962,0.909,0,0c2.709-16.272,16.125-28.92,32.769-30.446c-0.414,0.375-0.829,0.749-1.209,1.144
		c-0.435,0.452-0.42,1.17,0.029,1.604c0.452,0.435,1.17,0.422,1.605-0.029c0.97-1.008,2.06-1.946,3.252-2.819
		c4.887,3.221,7.825,7.906,9.566,12.859c0.207,0.59,0.855,0.901,1.447,0.693c0.59-0.207,0.901-0.854,0.694-1.445
		c-1.511-4.311-3.95-8.546-7.731-11.898C202.172,169.212,215.109,181.541,217.879,197.387 M182.888,164.852v-5.094
		c0-0.627-0.509-1.135-1.136-1.135s-1.134,0.508-1.134,1.135v5.096c-20.144,0.595-36.449,16.444-37.704,36.42
		c-0.032,0.515,0.288,0.988,0.781,1.148c0.493,0.159,1.031-0.034,1.308-0.47c2.438-3.828,6.695-6.369,11.563-6.369
		c4.867,0,9.118,2.546,11.554,6.375c0.207,0.326,0.571,0.527,0.957,0.527h0.499c0.387,0,0.749-0.201,0.958-0.527
		c2.186-3.437,5.841-5.822,10.084-6.279v38.377c0,0.042,0.02,0.078,0.025,0.119c-0.002,0.024-0.015,0.045-0.015,0.07
		c0.002,3.62,2.935,6.553,6.555,6.555c3.621-0.002,6.552-2.935,6.554-6.555c0-0.627-0.508-1.134-1.134-1.134
		c-0.627,0-1.135,0.507-1.135,1.134c-0.001,1.188-0.478,2.25-1.257,3.031c-0.776,0.776-1.842,1.254-3.028,1.254
		c-1.188,0-2.251-0.478-3.03-1.254c-0.777-0.781-1.255-1.844-1.255-3.031c0-0.042-0.021-0.077-0.024-0.118
		c0.002-0.025,0.015-0.046,0.015-0.071v-38.421c4.528,0.264,8.46,2.705,10.762,6.323c0.195,0.308,0.532,0.489,0.894,0.511
		c0.002,0,0.004,0.001,0.004,0.001c0.002,0,0.002,0,0.002,0c0.021,0.001,0.037,0.016,0.058,0.016h0.106
		c0.039,0,0.072-0.025,0.111-0.029c0.119-0.012,0.23-0.04,0.338-0.087c0.051-0.022,0.098-0.04,0.145-0.069
		c0.13-0.081,0.24-0.183,0.33-0.309c0.009-0.015,0.025-0.02,0.033-0.033c2.438-3.831,6.695-6.375,11.562-6.375
		c4.689,0,8.817,2.354,11.294,5.948c0.291,0.422,0.826,0.597,1.31,0.427c0.486-0.172,0.793-0.643,0.755-1.154
		C219.113,181.038,202.892,165.421,182.888,164.852"/>
	<path fill="none" stroke="#FFFFFF" stroke-width="0.4" stroke-miterlimit="10" d="M195.434,185.671
		c-0.204-1.147-0.456-2.317-0.768-3.494c-0.159-0.604-0.78-0.968-1.385-0.807c-0.606,0.161-0.968,0.781-0.808,1.386
		c0.293,1.11,0.53,2.22,0.724,3.313c0.112,0.617,0.7,1.027,1.317,0.919C195.132,186.878,195.543,186.289,195.434,185.671z
		 M217.879,197.387C218.826,198.236,218.084,198.564,217.879,197.387c-2.824-2.53-6.557-4.072-10.646-4.072
		c-4.309,0-8.207,1.721-11.076,4.495c0.041-0.825,0.069-1.758,0.069-2.789c0-0.524-0.008-1.072-0.022-1.642
		c-0.018-0.627-0.541-1.121-1.168-1.102c-0.627,0.017-1.119,0.538-1.101,1.166c0.017,0.547,0.022,1.074,0.022,1.577
		c0,1.361-0.049,2.554-0.112,3.521c-2.915-3.194-7.087-5.227-11.757-5.227c-4.798,0-9.077,2.144-11.998,5.494
		c-0.051-0.774-0.097-1.809-0.097-3.056c-0.005-5.113,0.784-13.607,5.024-20.786c0.318-0.54,0.138-1.236-0.402-1.553
		c-0.54-0.318-1.236-0.138-1.553,0.401c-4.558,7.755-5.332,16.604-5.338,21.938c0,0.829,0.02,1.561,0.048,2.203
		c-2.879-2.857-6.826-4.642-11.206-4.642c-4.243,0-8.095,1.661-10.951,4.363c-0.205,1.228-0.962,0.909,0,0
		c2.709-16.272,16.125-28.92,32.769-30.446c-0.414,0.375-0.829,0.749-1.209,1.144c-0.435,0.452-0.42,1.17,0.029,1.604
		c0.452,0.435,1.17,0.422,1.605-0.029c0.97-1.008,2.06-1.946,3.252-2.819c4.887,3.221,7.825,7.906,9.566,12.859
		c0.207,0.59,0.855,0.901,1.447,0.693c0.59-0.207,0.901-0.854,0.694-1.445c-1.511-4.311-3.95-8.546-7.731-11.898
		C202.172,169.212,215.109,181.541,217.879,197.387z M182.888,164.852v-5.094c0-0.627-0.509-1.135-1.136-1.135
		s-1.134,0.508-1.134,1.135v5.096c-20.144,0.595-36.449,16.444-37.704,36.42c-0.032,0.515,0.288,0.988,0.781,1.148
		c0.493,0.159,1.031-0.034,1.308-0.47c2.438-3.828,6.695-6.369,11.563-6.369c4.867,0,9.118,2.546,11.554,6.375
		c0.207,0.326,0.571,0.527,0.957,0.527h0.499c0.387,0,0.749-0.201,0.958-0.527c2.186-3.437,5.841-5.822,10.084-6.279v38.377
		c0,0.042,0.02,0.078,0.025,0.119c-0.002,0.024-0.015,0.045-0.015,0.07c0.002,3.62,2.935,6.553,6.555,6.555
		c3.621-0.002,6.552-2.935,6.554-6.555c0-0.627-0.508-1.134-1.134-1.134c-0.627,0-1.135,0.507-1.135,1.134
		c-0.001,1.188-0.478,2.25-1.257,3.031c-0.776,0.776-1.842,1.254-3.028,1.254c-1.188,0-2.251-0.478-3.03-1.254
		c-0.777-0.781-1.255-1.844-1.255-3.031c0-0.042-0.021-0.077-0.024-0.118c0.002-0.025,0.015-0.046,0.015-0.071v-38.421
		c4.528,0.264,8.46,2.705,10.762,6.323c0.195,0.308,0.532,0.489,0.894,0.511c0.002,0,0.004,0.001,0.004,0.001
		c0.002,0,0.002,0,0.002,0c0.021,0.001,0.037,0.016,0.058,0.016h0.106c0.039,0,0.072-0.025,0.111-0.029
		c0.119-0.012,0.23-0.04,0.338-0.087c0.051-0.022,0.098-0.04,0.145-0.069c0.13-0.081,0.24-0.183,0.33-0.309
		c0.009-0.015,0.025-0.02,0.033-0.033c2.438-3.831,6.695-6.375,11.562-6.375c4.689,0,8.817,2.354,11.294,5.948
		c0.291,0.422,0.826,0.597,1.31,0.427c0.486-0.172,0.793-0.643,0.755-1.154C219.113,181.038,202.892,165.421,182.888,164.852z"/>
</g>
<rect x="164.528" y="135.291" fill="#ED3293" width="1.609" height="3.218"/>
<rect x="145.218" y="144.946" fill="#ED3293" width="1.609" height="6.437"/>
<rect x="154.873" y="148.636" fill="#ED3293" width="1.609" height="3.218"/>
<rect x="158.092" y="142.199" fill="#ED3293" width="1.609" height="6.437"/>
<rect x="161.31" y="144.946" fill="#ED3293" width="1.609" height="3.218"/>
<rect x="167.746" y="128.854" fill="#ED3293" width="1.609" height="6.438"/>
<rect x="154.873" y="135.291" fill="#ED3293" width="1.609" height="6.437"/>
<rect x="148.437" y="138.509" fill="#ED3293" width="1.609" height="3.218"/>
<rect x="148.437" y="144.946" fill="#ED3293" width="1.609" height="3.218"/>
<rect x="142" y="141.728" fill="#ED3293" width="1.609" height="3.219"/>
<rect x="142" y="148.164" fill="#ED3293" width="1.609" height="3.218"/>
<rect x="161.31" y="135.291" fill="#ED3293" width="1.609" height="3.218"/>
<rect x="164.528" y="128.854" fill="#ED3293" width="1.609" height="3.22"/>
<rect x="164.528" y="141.728" fill="#ED3293" width="1.609" height="12.873"/>
<rect x="170.965" y="141.728" fill="#ED3293" width="1.609" height="3.22"/>
<rect x="170.965" y="132.073" fill="#ED3293" width="1.609" height="6.437"/>
<rect x="170.965" y="125.636" fill="#ED3293" width="1.609" height="3.218"/>
<rect x="164.528" y="125.636" fill="#ED3293" width="1.609" height="3.218"/>
<rect x="158.092" y="123.636" fill="#ED3293" width="1.609" height="3.218"/>
<rect x="151.655" y="128.854" fill="#ED3293" width="1.609" height="6.438"/>
<rect x="158.092" y="132.073" fill="#ED3293" width="1.609" height="3.218"/>
<rect x="142" y="128.854" fill="#ED3293" width="1.609" height="6.438"/>
<rect x="145.218" y="125.636" fill="#ED3293" width="1.609" height="3.218"/>
<rect x="174.183" y="138.509" fill="#ED3293" width="1.609" height="6.438"/>
<rect x="177.401" y="142.636" fill="#ED3293" width="1.609" height="6.438"/>
<rect x="177.401" y="127.481" fill="#ED3293" width="1.609" height="12.872"/>
<rect x="193.493" y="153.027" fill="#ED3293" width="1.608" height="3.218"/>
<rect x="193.493" y="135.291" fill="#ED3293" width="1.608" height="6.437"/>
<rect x="190.275" y="140.636" fill="#ED3293" width="1.608" height="6.438"/>
<rect x="187.057" y="144.946" fill="#ED3293" width="1.608" height="3.218"/>
<rect x="180.62" y="148.164" fill="#ED3293" width="1.608" height="3.218"/>
<rect x="183.838" y="132.073" fill="#ED3293" width="1.609" height="6.437"/>
<rect x="190.275" y="120.418" fill="#ED3293" width="1.608" height="6.438"/>
<rect x="187.057" y="125.636" fill="#ED3293" width="1.608" height="3.218"/>
<rect x="180.62" y="128.854" fill="#ED3293" width="1.608" height="6.438"/>
<rect x="183.838" y="123.636" fill="#ED3293" width="1.609" height="3.218"/>
<rect x="219.089" y="134.682" fill="#ED3293" width="1.609" height="3.219"/>
<rect x="199.779" y="146.636" fill="#ED3293" width="1.609" height="6.438"/>
<rect x="209.434" y="147.636" fill="#ED3293" width="1.609" height="3.218"/>
<rect x="212.652" y="150.636" fill="#ED3293" width="1.609" height="6.438"/>
<rect x="215.871" y="144.337" fill="#ED3293" width="1.609" height="3.218"/>
<rect x="212.652" y="137.9" fill="#ED3293" width="1.609" height="6.437"/>
<rect x="209.434" y="134.682" fill="#ED3293" width="1.609" height="6.438"/>
<rect x="202.998" y="137.9" fill="#ED3293" width="1.609" height="3.218"/>
<rect x="206.216" y="142.199" fill="#ED3293" width="1.609" height="6.437"/>
<rect x="202.998" y="144.337" fill="#ED3293" width="1.609" height="3.218"/>
<rect x="196.561" y="137.636" fill="#ED3293" width="1.609" height="3.22"/>
<rect x="196.561" y="144.073" fill="#ED3293" width="1.609" height="3.218"/>
<rect x="215.871" y="134.682" fill="#ED3293" width="1.609" height="3.219"/>
<rect x="219.089" y="128.245" fill="#ED3293" width="1.609" height="3.219"/>
<rect x="219.089" y="142.636" fill="#ED3293" width="1.609" height="12.873"/>
<rect x="219.089" y="125.027" fill="#ED3293" width="1.609" height="3.218"/>
<rect x="212.652" y="130.421" fill="#ED3293" width="1.609" height="3.218"/>
<rect x="206.216" y="123.636" fill="#ED3293" width="1.609" height="6.438"/>
<rect x="202.998" y="130.421" fill="#ED3293" width="1.609" height="3.218"/>
<rect x="199.779" y="129.636" fill="#ED3293" width="1.609" height="3.218"/>
</svg>
