<?xml version="1.0" encoding="utf-8"?>
<!-- Generator: Adobe Illustrator 15.0.2, SVG Export Plug-In . SVG Version: 6.00 Build 0)  -->
<!DOCTYPE svg PUBLIC "-//W3C//DTD SVG 1.1//EN" "http://www.w3.org/Graphics/SVG/1.1/DTD/svg11.dtd">
<svg version="1.1" id="Layer_1" xmlns="http://www.w3.org/2000/svg" xmlns:xlink="http://www.w3.org/1999/xlink" x="0px" y="0px"
	 width="360px" height="360px" viewBox="0 0 360 360" enable-background="new 0 0 360 360" xml:space="preserve">
<g>
	<path fill="#212929" d="M137.722,218.578l4.7,4.699l44.664-44.663l-4.701-4.7L137.722,218.578z M142.422,225
		c-0.183,0-0.365-0.069-0.504-0.209l-5.709-5.709c-0.279-0.279-0.279-0.73,0-1.009l45.671-45.673c0.279-0.278,0.73-0.278,1.01,0
		l5.709,5.709c0.279,0.278,0.279,0.73,0,1.01l-45.672,45.672C142.788,224.931,142.605,225,142.422,225"/>
	<path fill="#212929" d="M191.454,176.265l-1.009-1.01l9.486-9.486l-4.701-4.699l-9.485,9.486l-1.009-1.01l9.99-9.99
		c0.278-0.279,0.73-0.279,1.01,0l5.709,5.709c0.279,0.278,0.279,0.729,0,1.009L191.454,176.265z"/>
	<path fill="#ED3293" d="M158.787,145.073l5.364,4.146c0.236,0.182,0.333,0.491,0.245,0.776l-2.05,6.628l5.322-4.259
		c0.262-0.208,0.63-0.208,0.892,0l5.249,4.2l-2.091-6.271c-0.094-0.284-0.001-0.598,0.232-0.783l5.547-4.438h-6.529
		c-0.306,0-0.579-0.196-0.677-0.487l-2.177-6.533l-2.177,6.533c-0.098,0.291-0.371,0.487-0.678,0.487H158.787z M175.25,159.346
		c-0.157,0-0.316-0.052-0.446-0.156l-6.69-5.353l-6.691,5.353c-0.243,0.195-0.589,0.208-0.847,0.032
		c-0.259-0.176-0.373-0.501-0.28-0.801l2.591-8.374l-6.628-5.122c-0.241-0.188-0.337-0.507-0.239-0.796
		c0.099-0.288,0.371-0.483,0.676-0.483h8.049l2.692-8.075c0.194-0.583,1.159-0.583,1.354,0l2.691,8.075h8.05
		c0.302,0,0.573,0.192,0.673,0.479c0.101,0.285,0.01,0.604-0.227,0.793l-6.748,5.398l2.698,8.091
		c0.098,0.301-0.01,0.631-0.269,0.812C175.536,159.304,175.392,159.346,175.25,159.346"/>
	<path fill="#212929" d="M185.24,216.437c-9.349,0-18.479-3.251-25.709-9.154l0.903-1.104c6.976,5.694,15.786,8.832,24.807,8.832
		V216.437z"/>
	<path fill="#212929" d="M218.627,199.004l-1.172-0.816c4.604-6.599,7.035-14.354,7.035-22.429c0-4.316-0.695-8.559-2.066-12.608
		l1.352-0.458c1.421,4.197,2.143,8.594,2.143,13.066C225.918,184.128,223.396,192.166,218.627,199.004"/>
	<path fill="#212929" d="M199.258,139.086c-4.47-1.709-9.186-2.576-14.018-2.576v-1.427c5.007,0,9.895,0.897,14.527,2.67
		L199.258,139.086z"/>
	<path fill="#212929" d="M153.717,201.47c-5.903-7.228-9.153-16.358-9.153-25.71c0-8.369,2.521-16.407,7.292-23.245l1.171,0.817
		c-4.602,6.597-7.036,14.353-7.036,22.428c0,9.022,3.136,17.834,8.832,24.807L153.717,201.47z"/>
	<path fill="#212929" d="M206.649,175.047c-0.394,0-0.713,0.318-0.713,0.713c0,0.394,0.319,0.714,0.713,0.714
		s0.714-0.32,0.714-0.714C207.363,175.365,207.043,175.047,206.649,175.047 M206.649,177.9c-1.181,0-2.142-0.96-2.142-2.141
		s0.961-2.142,2.142-2.142s2.142,0.961,2.142,2.142S207.83,177.9,206.649,177.9"/>
	<path fill="#212929" d="M190.949,145.073c-0.393,0-0.713,0.319-0.713,0.714c0,0.394,0.32,0.714,0.713,0.714
		c0.394,0,0.713-0.32,0.713-0.714C191.662,145.393,191.343,145.073,190.949,145.073 M190.949,147.928
		c-1.181,0-2.141-0.96-2.141-2.141s0.96-2.142,2.141-2.142s2.142,0.961,2.142,2.142S192.13,147.928,190.949,147.928"/>
	<path fill="#212929" d="M168.113,165.056c-0.393,0-0.713,0.319-0.713,0.713s0.32,0.714,0.713,0.714s0.714-0.32,0.714-0.714
		S168.506,165.056,168.113,165.056 M168.113,167.91c-1.181,0-2.141-0.961-2.141-2.142s0.96-2.141,2.141-2.141
		s2.141,0.96,2.141,2.141S169.294,167.91,168.113,167.91"/>
	<path fill="#212929" d="M188.096,192.173c-0.394,0-0.715,0.319-0.715,0.714c0,0.394,0.321,0.714,0.715,0.714
		c0.393,0,0.713-0.32,0.713-0.714C188.809,192.492,188.488,192.173,188.096,192.173 M188.096,195.027
		c-1.182,0-2.142-0.96-2.142-2.141s0.96-2.142,2.142-2.142c1.18,0,2.141,0.961,2.141,2.142S189.275,195.027,188.096,195.027"/>
	<path fill="#212929" d="M212.358,186.465c-0.394,0-0.713,0.318-0.713,0.713c0,0.394,0.319,0.714,0.713,0.714
		s0.714-0.32,0.714-0.714C213.072,186.783,212.752,186.465,212.358,186.465 M212.358,189.318c-1.181,0-2.142-0.96-2.142-2.141
		s0.961-2.142,2.142-2.142s2.142,0.961,2.142,2.142S213.539,189.318,212.358,189.318"/>
	<path fill="#212929" d="M159.808,195.368c-4.371-5.66-6.681-12.44-6.681-19.608h1.428c0,6.849,2.206,13.328,6.382,18.735
		L159.808,195.368z"/>
</g>
<rect x="182.387" y="155.064" fill="#212929" width="2.854" height="1.427"/>
<rect x="166.687" y="173.619" fill="#212929" width="2.854" height="1.427"/>
<rect x="152.414" y="170.764" fill="#212929" width="2.854" height="1.428"/>
<rect x="179.532" y="203.592" fill="#212929" width="2.854" height="1.427"/>
<g>
	<path fill="#ED3293" d="M212.358,159.346c-2.754,0-4.995-2.241-4.995-4.995h1.428c0,1.967,1.6,3.568,3.567,3.568
		s3.567-1.602,3.567-3.568c0-1.552-2.858-3.182-3.858-3.63c-0.481-0.216-4.704-2.187-4.704-4.934c0-2.755,2.241-4.995,4.995-4.995
		s4.996,2.24,4.996,4.995h-1.429c0-1.968-1.6-3.568-3.567-3.568s-3.567,1.601-3.567,3.568c0,1.552,2.858,3.182,3.859,3.63
		c0.482,0.217,4.704,2.186,4.704,4.934C217.354,157.104,215.112,159.346,212.358,159.346"/>
</g>
<rect x="211.645" y="137.223" fill="#ED3293" width="1.428" height="4.282"/>
<rect x="211.645" y="158.632" fill="#ED3293" width="1.428" height="4.282"/>
<g>
	<path fill="#ED3293" d="M200.94,209.301c-2.754,0-4.996-2.241-4.996-4.996h1.429c0,1.968,1.6,3.568,3.567,3.568
		s3.567-1.601,3.567-3.568c0-1.552-2.858-3.183-3.859-3.629c-0.48-0.218-4.704-2.188-4.704-4.935c0-2.754,2.242-4.996,4.996-4.996
		s4.996,2.242,4.996,4.996h-1.429c0-1.967-1.6-3.568-3.567-3.568s-3.567,1.602-3.567,3.568c0,1.552,2.858,3.182,3.859,3.63
		c0.48,0.216,4.704,2.187,4.704,4.934C205.937,207.06,203.694,209.301,200.94,209.301"/>
</g>
<rect x="200.227" y="187.177" fill="#ED3293" width="1.428" height="4.282"/>
<rect x="200.227" y="208.586" fill="#ED3293" width="1.428" height="4.282"/>
</svg>
