<?xml version="1.0" encoding="utf-8"?>
<!-- Generator: Adobe Illustrator 15.0.2, SVG Export Plug-In . SVG Version: 6.00 Build 0)  -->
<!DOCTYPE svg PUBLIC "-//W3C//DTD SVG 1.1//EN" "http://www.w3.org/Graphics/SVG/1.1/DTD/svg11.dtd">
<svg version="1.1" id="Layer_1" xmlns="http://www.w3.org/2000/svg" xmlns:xlink="http://www.w3.org/1999/xlink" x="0px" y="0px"
	 width="1999.41px" height="752.37px" viewBox="0 0 1999.41 752.37" enable-background="new 0 0 1999.41 752.37"
	 xml:space="preserve">
<path fill="#231F20" d="M383.928,276.041c32.368,4.831,65.952,19.954,94.352,40.815c12.834-85.057-48.891-135.979-110.782-139.329
	C367.294,198.334,369.401,236.388,383.928,276.041"/>
<path fill="#231F20" d="M437.463,444.706c-20.165,23.83-45.566,43.639-72.676,57.564c49.583,50.123,126.442,26.069,165.86-22.66
	C512.719,469.039,478.858,451.951,437.463,444.706"/>
<path fill="#231F20" d="M264.544,406.562c-11.548-27.811-15.741-60.891-12.853-93.25c-71.268,28.653-87.806,100.08-63.025,156.029
	C206.969,458.885,238.063,438.251,264.544,406.562"/>
<polyline fill="#231F20" points="682.756,471.354 682.756,436.445 782.904,334.889 782.904,334.186 688.049,334.186 
	688.049,297.157 839.674,297.157 839.674,332.066 739.53,433.622 739.53,434.33 843.2,434.33 843.2,471.354 682.756,471.354 "/>
<path fill="#231F20" d="M908.808,399.066v0.704c5.642,23.275,23.626,38.087,49.721,38.087c18.687,0,32.439-5.293,41.254-16.577
	h44.787c-13.051,33.147-44.787,54.659-86.042,54.659c-55.009,0-93.799-38.791-93.799-91.684s38.79-91.683,93.799-91.683
	c55.011,0,93.091,38.79,93.091,91.683v14.811H908.808 M909.866,364.861v0.708h97.324v-0.708
	c-6.7-21.157-24.333-34.202-48.662-34.202C933.845,330.659,916.565,343.704,909.866,364.861z"/>
<path fill="#231F20" d="M1217.03,444.906h-0.71c-11.29,17.988-32.09,28.918-58.181,28.918c-41.609,0-86.05-27.86-86.05-89.568
	c0-52.893,38.8-91.683,93.8-91.683c55.011,0,93.091,36.675,93.091,93.095v71.934c0,66.646-41.25,92.74-92.381,92.74
	c-43.369,0-77.58-18.687-88.51-59.946h42.311c7.06,16.223,23.979,23.626,46.199,23.626c31.03,0,50.431-14.457,50.431-55.01V444.906
	 M1165.89,331.717c-30.68,0-51.479,21.859-51.479,52.539c0,30.679,20.8,50.423,51.479,50.423c30.681,0,51.141-19.744,51.141-50.423
	C1217.03,353.576,1196.57,331.717,1165.89,331.717z"/>
<path fill="#231F20" d="M1414.08,297.157h41.96v90.625c0,58.182-34.561,88.157-86.04,88.157c-51.48,0-86.04-29.622-86.04-88.157
	v-90.625h41.96v90.625c0,33.147,17.63,49.018,44.08,49.018s44.08-15.87,44.08-49.018V297.157"/>
<path fill="#231F20" d="M1592.09,371.914v-1.761c0-28.21-14.1-38.436-34.55-38.436s-34.561,10.226-34.561,38.436v101.201h-41.96
	V370.153c0-52.543,31.03-77.58,76.521-77.58s76.16,25.037,76.16,78.284v1.057H1592.09"/>
<path fill="#231F20" d="M1743.03,475.939c-55,0-93.8-38.791-93.8-91.684s38.8-91.683,93.8-91.683c55.01,0,93.8,38.79,93.8,91.683
	S1798.04,475.939,1743.03,475.939 M1794.16,384.256c0-30.68-20.45-52.539-51.13-52.539c-30.681,0-51.48,21.859-51.48,52.539
	c0,30.679,20.8,52.544,51.48,52.544C1773.71,436.8,1794.16,414.935,1794.16,384.256z"/>
<g>
	<defs>
		<path id="SVGID_1_" d="M367.5,177.512c0,0.006,0,0.009,0,0.016c61.889,3.35,105.365,68.531,110.782,139.327
			c2.658,34.789-3.904,70.909-21.955,101.725c23.874,9.49,54.662,25.521,80.794,51.349c3.584-6.651,6.895-13.481,9.728-20.56
			c9.093-22.736,14.129-47.524,14.129-73.504C560.978,267.919,474.796,180.179,367.5,177.512"/>
	</defs>
	<clipPath id="SVGID_2_">
		<use xlink:href="#SVGID_1_"  overflow="visible"/>
	</clipPath>
	
		<linearGradient id="SVGID_3_" gradientUnits="userSpaceOnUse" x1="0" y1="752.2979" x2="1" y2="752.2979" gradientTransform="matrix(52.689 -133.271 -133.271 -52.689 100677.7422 40077.875)">
		<stop  offset="0" style="stop-color:#231F20"/>
		<stop  offset="0.1316" style="stop-color:#2B2829"/>
		<stop  offset="0.3441" style="stop-color:#423F41"/>
		<stop  offset="0.6111" style="stop-color:#666567"/>
		<stop  offset="0.9193" style="stop-color:#999A9D"/>
		<stop  offset="1" style="stop-color:#A7A9AC"/>
	</linearGradient>
	<polygon clip-path="url(#SVGID_2_)" fill="url(#SVGID_3_)" points="267.52,430.401 393.653,111.36 660.958,217.04 534.825,536.081 
			"/>
</g>
<g>
	<defs>
		<path id="SVGID_4_" d="M355.708,177.594c-106.467,3.59-191.704,90.928-191.704,198.271c0,34.033,8.698,65.983,23.796,93.974
			c0.278-0.161,0.575-0.333,0.865-0.498c-24.782-55.949,9.594-117.371,63.028-156.029c29.861-21.609,65.673-36.067,100.431-38.519
			c-3.922-25.423-5.793-60.807,3.566-97.135C355.696,177.637,355.702,177.615,355.708,177.594"/>
	</defs>
	<clipPath id="SVGID_5_">
		<use xlink:href="#SVGID_4_"  overflow="visible"/>
	</clipPath>
	
		<linearGradient id="SVGID_6_" gradientUnits="userSpaceOnUse" x1="0" y1="752.3662" x2="1" y2="752.3662" gradientTransform="matrix(-131.172 35.452 35.452 131.172 -26283.2129 -98400.7734)">
		<stop  offset="0" style="stop-color:#231F20"/>
		<stop  offset="0.1316" style="stop-color:#2B2829"/>
		<stop  offset="0.3441" style="stop-color:#423F41"/>
		<stop  offset="0.6111" style="stop-color:#666567"/>
		<stop  offset="0.9193" style="stop-color:#999A9D"/>
		<stop  offset="1" style="stop-color:#A7A9AC"/>
	</linearGradient>
	<polygon clip-path="url(#SVGID_5_)" fill="url(#SVGID_6_)" points="429.316,449.945 176.941,518.154 90.274,197.488 
		342.65,129.279 	"/>
</g>
<g>
	<defs>
		<path id="SVGID_7_" d="M530.644,479.61c-39.413,48.729-107.302,48.907-165.856,22.659c-31.69-14.207-60.607-36.108-80.752-62.152
			c-1.507-1.839-2.936-3.744-4.316-5.682c-19.934,16.06-49.523,35.386-85.552,45.558c-0.139,0.04-0.285,0.082-0.424,0.12
			c34.982,56.507,97.405,94.234,168.75,94.234c71.387,0,133.84-37.779,168.804-94.345
			C531.08,479.869,530.874,479.745,530.644,479.61"/>
	</defs>
	<clipPath id="SVGID_8_">
		<use xlink:href="#SVGID_7_"  overflow="visible"/>
	</clipPath>
	
		<linearGradient id="SVGID_9_" gradientUnits="userSpaceOnUse" x1="0" y1="752.2627" x2="1" y2="752.2627" gradientTransform="matrix(95.369 95.369 95.369 -95.369 -71477.2891 72149.6094)">
		<stop  offset="0" style="stop-color:#231F20"/>
		<stop  offset="0.1316" style="stop-color:#2B2829"/>
		<stop  offset="0.3441" style="stop-color:#423F41"/>
		<stop  offset="0.6111" style="stop-color:#666567"/>
		<stop  offset="0.9193" style="stop-color:#999A9D"/>
		<stop  offset="1" style="stop-color:#A7A9AC"/>
	</linearGradient>
	<polygon clip-path="url(#SVGID_8_)" fill="url(#SVGID_9_)" points="362.521,265.658 601.254,504.392 362.521,743.125 
		123.788,504.392 	"/>
</g>
<polyline fill="#231F20" points="1843.8,294.296 1843.8,296.845 1836.59,296.845 1836.59,315.695 1833.67,315.695 1833.67,296.845 
	1826.45,296.845 1826.45,294.296 1843.8,294.296 "/>
<path fill="#231F20" d="M1845.5,294.296h4.16l6.149,18.092l6.11-18.092h4.12v21.399h-2.771v-12.629c0-0.437,0.011-1.161,0.03-2.171
	c0.021-1.01,0.03-2.092,0.03-3.248l-6.11,18.048h-2.87l-6.17-18.048v0.655c0,0.524,0.021,1.324,0.051,2.397
	c0.029,1.073,0.039,1.862,0.039,2.367v12.629h-2.77V294.296"/>
</svg>
